<?xml version="1.0" encoding="UTF-8" standalone="no"?>
<svg
   xmlns:dc="http://purl.org/dc/elements/1.1/"
   xmlns:cc="http://creativecommons.org/ns#"
   xmlns:rdf="http://www.w3.org/1999/02/22-rdf-syntax-ns#"
   xmlns:svg="http://www.w3.org/2000/svg"
   xmlns="http://www.w3.org/2000/svg"
   xmlns:sodipodi="http://sodipodi.sourceforge.net/DTD/sodipodi-0.dtd"
   xmlns:inkscape="http://www.inkscape.org/namespaces/inkscape"
   inkscape:export-ydpi="192"
   inkscape:export-xdpi="192"
   inkscape:export-filename="/home/code/rust/accord/res/pitch.png"
   inkscape:version="1.0 (4035a4fb49, 2020-05-01)"
   sodipodi:docname="pitch.svg"
   version="1.1"
   viewBox="0 0 640 320"
   id="Layer_1"
   width="640"
   height="320">
  <metadata
     id="metadata974">
    <rdf:RDF>
      <cc:Work
         rdf:about="">
        <dc:format>image/svg+xml</dc:format>
        <dc:type
           rdf:resource="http://purl.org/dc/dcmitype/StillImage" />
        <dc:title />
      </cc:Work>
    </rdf:RDF>
  </metadata>
  <defs
     id="defs972">
    <rect
       x="329.04581"
       y="128.99768"
       width="255.80109"
       height="150.10575"
       id="rect901" />
    <rect
       x="328.28825"
       y="125.34651"
       width="254.33825"
       height="151.1315"
       id="rect895" />
    <rect
       x="289.2461"
       y="35.296135"
       width="329.41686"
       height="106.71497"
       id="rect885" />
    <rect
       id="rect901-3"
       height="150.10574"
       width="255.80109"
       y="128.99768"
       x="329.04581" />
    <rect
       id="rect995"
       height="150.10574"
       width="255.80109"
       y="128.99768"
       x="329.04581" />
  </defs>
  <sodipodi:namedview
     inkscape:current-layer="Layer_1"
     inkscape:window-maximized="1"
     inkscape:window-y="27"
     inkscape:window-x="1920"
     inkscape:cy="48.937336"
     inkscape:cx="396.13608"
     inkscape:zoom="0.87187504"
     showgrid="false"
     id="namedview970"
     inkscape:window-height="1025"
     inkscape:window-width="1920"
     inkscape:pageshadow="2"
     inkscape:pageopacity="0"
     guidetolerance="10"
     gridtolerance="10"
     objecttolerance="10"
     borderopacity="1"
     bordercolor="#666666"
     pagecolor="#ffffff"
     inkscape:document-rotation="0"
     showguides="true"
     inkscape:guide-bbox="true">
    <sodipodi:guide
       position="238.86837,57.83687"
       orientation="0,-1"
       id="guide1035" />
  </sodipodi:namedview>
  <style
     id="style963">.st0{fill:#7289DA;}</style>
  <path
     sodipodi:nodetypes="ssccccssccs"
     style="fill:#7289da;fill-opacity:1;stroke-width:1.37768"
     d="M 63.261991,20 C 47.694196,20 35.019531,32.674126 35.019531,48.379689 V 295.5362 c 11.956131,-10.70279 24.313149,-20.95452 35.753923,-32.21083 51.257946,-0.01 108.855006,-1.15325 168.094916,-1.16224 12.03152,11.53171 24.73309,22.33952 37.21842,33.37307 V 48.379689 C 276.08679,32.674126 263.41213,20 247.84433,20 h -72.06725 -40.44784 z"
     id="path967" />
  <path
     style="fill:#ffffff;fill-opacity:1;stroke-width:0.278489"
     fill="currentColor"
     d="m 202.0716,131.14594 h -42.33016 v 15.59532 c 0,11.05596 -8.99517,20.05113 -20.05114,20.05113 -11.05596,0 -20.05113,-8.99517 -20.05113,-20.05113 v -33.86413 l -18.07387,10.86102 c -5.374814,3.20261 -8.660969,9.02301 -8.660969,15.26114 v 13.17249 L 70.6253,165.03791 c -4.260864,2.45069 -5.736856,7.90906 -3.258311,12.16993 l 22.27903,38.59842 c 2.450701,4.26086 7.90906,5.709 12.169921,3.25831 l 28.79567,-16.62573 h 38.04145 c 9.83062,0 17.82322,-7.9926 17.82322,-17.82323 h 4.45581 c 4.92923,0 8.91161,-3.98238 8.91161,-8.91161 v -17.82322 h 2.2279 c 3.70388,0 6.68371,-2.97983 6.68371,-6.68371 v -13.36742 c 0,-3.70389 -2.97983,-6.68371 -6.68371,-6.68371 z m 41.13266,-10.41545 -22.27903,-38.598428 c -2.4507,-4.260864 -7.90906,-5.709 -12.16992,-3.258312 L 179.95966,95.49948 H 151.4982 c -3.34186,0 -6.60017,0.946866 -9.44074,2.701343 l -9.32935,5.820387 c -2.61779,1.61523 -4.17732,4.48366 -4.17732,7.54703 v 35.17302 c 0,6.15459 4.98493,11.13952 11.13951,11.13952 6.15459,0 11.13952,-4.98493 11.13952,-11.13952 v -24.50694 h 51.24178 c 8.60527,0 15.59532,6.99004 15.59532,15.59533 v 7.9369 l 22.27903,-12.86614 c 4.26087,-2.47855 5.709,-7.90905 3.25831,-12.16992 z"
     id="path1030" />
  <text
     xml:space="preserve"
     id="text883"
     style="font-style:normal;font-variant:normal;font-weight:bold;font-stretch:normal;font-size:32px;line-height:1.25;font-family:Arquitecta;-inkscape-font-specification:'Arquitecta, Bold';font-variant-ligatures:normal;font-variant-caps:normal;font-variant-numeric:normal;font-feature-settings:normal;text-align:start;letter-spacing:0px;word-spacing:0px;writing-mode:lr-tb;white-space:pre;shape-inside:url(#rect885);fill:#7289da;fill-opacity:1;stroke:none;"
     transform="translate(42.950716,-12.692459)"><tspan
       x="289.24609"
       y="100.63024"><tspan
         style="font-style:normal;font-variant:normal;font-weight:900;font-stretch:normal;font-size:74.6667px;font-family:Arquitecta;-inkscape-font-specification:'Arquitecta Heavy';fill:#7289da;fill-opacity:1">A</tspan><tspan
         style="font-size:64px;fill:#7289da;fill-opacity:1">CCORD</tspan></tspan></text>
  <text
     xml:space="preserve"
     id="text893"
     style="fill:black;fill-opacity:1;stroke:none;font-family:Arquitecta;font-style:normal;font-weight:bold;font-size:32px;line-height:1.25;letter-spacing:0px;word-spacing:0px;-inkscape-font-specification:'Arquitecta, Bold';font-stretch:normal;font-variant:normal;text-align:start;writing-mode:lr-tb;font-variant-ligatures:normal;font-variant-caps:normal;font-variant-numeric:normal;font-feature-settings:normal;white-space:pre;shape-inside:url(#rect895);" />
  <text
     xml:space="preserve"
     id="text899"
     style="font-style:normal;font-variant:normal;font-weight:bold;font-stretch:normal;font-size:37.3333px;line-height:0;font-family:Arquitecta;-inkscape-font-specification:'Arquitecta, Bold';font-variant-ligatures:normal;font-variant-caps:normal;font-variant-numeric:normal;font-feature-settings:normal;text-align:start;letter-spacing:0px;word-spacing:0px;writing-mode:lr-tb;white-space:pre;shape-inside:url(#rect901);fill:#7289da;fill-opacity:1;stroke:none;"
     x="107.25829"
     y="0"
     transform="matrix(1,0,0,1.0918521,0,3.920008)"><tspan
       x="456.94629"
       y="159.42469"><tspan
         style="line-height:1.13;text-align:center;text-anchor:middle;fill:#7289da;fill-opacity:1">
</tspan></tspan><tspan
       x="425.66507"
       y="201.9759"><tspan
         style="line-height:1.13">↑↓</tspan><tspan
         style="line-height:0.72;text-align:center;text-anchor:middle;fill:#7289da;fill-opacity:1">
</tspan></tspan><tspan
       x="382.39194"
       y="236.14462"><tspan
         style="line-height:0.72;text-align:center;text-anchor:middle;fill:#7289da;fill-opacity:1">http server</tspan></tspan></text>
  <text
     transform="matrix(1,0,0,1.0918521,-0.16761679,-9.9351732)"
     y="0"
     x="107.25829"
     style="font-style:normal;font-variant:normal;font-weight:bold;font-stretch:normal;font-size:37.3333px;line-height:0;font-family:Arquitecta;-inkscape-font-specification:'Arquitecta, Bold';font-variant-ligatures:normal;font-variant-caps:normal;font-variant-numeric:normal;font-feature-settings:normal;text-align:start;letter-spacing:0px;word-spacing:0px;writing-mode:lr-tb;white-space:pre;shape-inside:url(#rect901-3);fill:#7289da;fill-opacity:1;stroke:none;"
     id="text899-8"
     xml:space="preserve"><tspan
       x="349.25868"
       y="159.42469"><tspan
         style="line-height:1.13;text-align:center;text-anchor:middle;fill:#7289da;fill-opacity:1">discord gateway
</tspan></tspan></text>
</svg>
